<svg width="253" height="130" viewBox="0 0 253 130" fill="none" xmlns="http://www.w3.org/2000/svg">
<path d="M104 5V22H97.1094H90C87.2386 22 85 24.2386 85 27V47C85 49.7614 87.2386 52 90 52H97.1094H104V70C104 72.7614 106.239 75 109 75H135.5C138.261 75 140.5 72.7614 140.5 70V52H155C157.761 52 160 49.7614 160 47V27C160 24.2386 157.761 22 155 22H147.37H141.195V5C141.195 2.23858 138.957 0 136.195 0H122.26H109C106.239 0 104 2.23858 104 5Z" fill="url(#paint0_linear_288_533)"/>
<path d="M44.6594 92H43.4577C43.3683 91.5526 43.2063 91.1392 42.9719 90.7599C42.7418 90.3764 42.4521 90.0419 42.1026 89.7564C41.7532 89.4709 41.3569 89.2493 40.9137 89.0916C40.4705 88.9339 39.9911 88.8551 39.4755 88.8551C38.6488 88.8551 37.8945 89.0703 37.2127 89.5007C36.5352 89.9311 35.9918 90.5639 35.5827 91.3991C35.1779 92.2301 34.9755 93.2486 34.9755 94.4545C34.9755 95.669 35.1779 96.6918 35.5827 97.5227C35.9918 98.3537 36.5352 98.9844 37.2127 99.4148C37.8945 99.8409 38.6488 100.054 39.4755 100.054C39.9911 100.054 40.4705 99.9751 40.9137 99.8175C41.3569 99.6598 41.7532 99.4403 42.1026 99.1591C42.4521 98.8736 42.7418 98.5391 42.9719 98.1555C43.2063 97.772 43.3683 97.3565 43.4577 96.9091H44.6594C44.5529 97.5099 44.3526 98.0703 44.0586 98.5902C43.7688 99.1058 43.3981 99.5575 42.9464 99.9453C42.4989 100.333 41.9833 100.636 41.3995 100.853C40.8157 101.07 40.1744 101.179 39.4755 101.179C38.3761 101.179 37.4002 100.904 36.5479 100.354C35.6957 99.8004 35.0266 99.0206 34.5408 98.0149C34.0593 97.0092 33.8185 95.8224 33.8185 94.4545C33.8185 93.0866 34.0593 91.8999 34.5408 90.8942C35.0266 89.8885 35.6957 89.1108 36.5479 88.5611C37.4002 88.0071 38.3761 87.7301 39.4755 87.7301C40.1744 87.7301 40.8157 87.8388 41.3995 88.0561C41.9833 88.2692 42.4989 88.5717 42.9464 88.9638C43.3981 89.3516 43.7688 89.8033 44.0586 90.3189C44.3526 90.8345 44.5529 91.3949 44.6594 92ZM47.4672 101V87.9091H48.6625V99.9261H54.9011V101H47.4672ZM58.7875 87.9091V101H57.5922V87.9091H58.7875ZM57.6561 86.5476L59.2924 83.6456H60.6412L58.6788 86.5476H57.6561ZM72.4632 87.9091V101H71.2999L63.5655 90.0376H63.4632V101H62.2679V87.9091H63.4249L71.1848 98.8842H71.2871V87.9091H72.4632ZM77.139 87.9091V101H75.9437V87.9091H77.139ZM90.8723 92H89.6706C89.5811 91.5526 89.4192 91.1392 89.1848 90.7599C88.9547 90.3764 88.665 90.0419 88.3155 89.7564C87.9661 89.4709 87.5698 89.2493 87.1266 89.0916C86.6834 88.9339 86.204 88.8551 85.6884 88.8551C84.8617 88.8551 84.1074 89.0703 83.4256 89.5007C82.748 89.9311 82.2047 90.5639 81.7956 91.3991C81.3908 92.2301 81.1884 93.2486 81.1884 94.4545C81.1884 95.669 81.3908 96.6918 81.7956 97.5227C82.2047 98.3537 82.748 98.9844 83.4256 99.4148C84.1074 99.8409 84.8617 100.054 85.6884 100.054C86.204 100.054 86.6834 99.9751 87.1266 99.8175C87.5698 99.6598 87.9661 99.4403 88.3155 99.1591C88.665 98.8736 88.9547 98.5391 89.1848 98.1555C89.4192 97.772 89.5811 97.3565 89.6706 96.9091H90.8723C90.7658 97.5099 90.5655 98.0703 90.2715 98.5902C89.9817 99.1058 89.611 99.5575 89.1593 99.9453C88.7118 100.333 88.1962 100.636 87.6124 100.853C87.0286 101.07 86.3873 101.179 85.6884 101.179C84.589 101.179 83.6131 100.904 82.7608 100.354C81.9086 99.8004 81.2395 99.0206 80.7537 98.0149C80.2722 97.0092 80.0314 95.8224 80.0314 94.4545C80.0314 93.0866 80.2722 91.8999 80.7537 90.8942C81.2395 89.8885 81.9086 89.1108 82.7608 88.5611C83.6131 88.0071 84.589 87.7301 85.6884 87.7301C86.3873 87.7301 87.0286 87.8388 87.6124 88.0561C88.1962 88.2692 88.7118 88.5717 89.1593 88.9638C89.611 89.3516 89.9817 89.8033 90.2715 90.3189C90.5655 90.8345 90.7658 91.3949 90.8723 92ZM93.6992 101H92.4464L97.2085 87.9091H98.4869L103.249 101H101.996L97.8924 89.4624H97.8029L93.6992 101ZM94.6005 95.9822H101.095V97.0561H94.6005V95.9822ZM110.555 101V87.9091H114.972C115.824 87.9091 116.534 88.0582 117.1 88.3565C117.672 88.6548 118.1 89.0618 118.385 89.5774C118.671 90.093 118.814 90.679 118.814 91.3352C118.814 91.8807 118.722 92.3473 118.539 92.7351C118.355 93.1229 118.106 93.4361 117.791 93.6747C117.475 93.9134 117.124 94.0859 116.736 94.1925V94.2947C117.158 94.3246 117.567 94.4737 117.963 94.7422C118.36 95.0064 118.686 95.3771 118.941 95.8544C119.197 96.3317 119.325 96.9027 119.325 97.5675C119.325 98.228 119.178 98.8182 118.884 99.3381C118.59 99.8537 118.138 100.261 117.529 100.559C116.924 100.853 116.152 101 115.215 101H110.555ZM111.75 99.9261H115.215C116.225 99.9261 116.971 99.7024 117.452 99.255C117.938 98.8075 118.181 98.245 118.181 97.5675C118.181 97.0689 118.059 96.6172 117.816 96.2124C117.578 95.8033 117.239 95.4794 116.8 95.2408C116.365 95.0021 115.854 94.8828 115.266 94.8828H111.75V99.9261ZM111.75 93.8217H115.081C115.596 93.8217 116.048 93.7152 116.436 93.5021C116.824 93.2891 117.126 92.995 117.343 92.62C117.561 92.245 117.669 91.8168 117.669 91.3352C117.669 90.6406 117.444 90.076 116.992 89.6413C116.54 89.2024 115.867 88.983 114.972 88.983H111.75V93.8217ZM122.209 101V87.9091H129.803V88.983H123.405V93.9112H129.4V94.9851H123.405V99.9261H129.931V101H122.209ZM132.897 87.9091H134.278L139.027 99.3125H139.142L143.891 87.9091H145.272V101H144.147V90.4339H144.045L139.628 101H138.541L134.124 90.4339H134.022V101H132.897V87.9091ZM158.877 93.9176V94.9915H153.431V93.9176H158.877ZM167.034 101V87.9091H174.627V88.983H168.229V93.9112H174.225V94.9851H168.229V99.9261H174.755V101H167.034ZM184.829 91.1818C184.757 90.4531 184.435 89.8736 183.864 89.4432C183.293 89.0128 182.575 88.7976 181.71 88.7976C181.1 88.7976 180.563 88.902 180.099 89.1108C179.639 89.3196 179.276 89.6094 179.012 89.9801C178.752 90.3466 178.622 90.7642 178.622 91.233C178.622 91.5781 178.697 91.8807 178.846 92.1406C178.995 92.4006 179.195 92.6243 179.447 92.8118C179.703 92.995 179.984 93.1527 180.291 93.2848C180.602 93.4169 180.915 93.5277 181.23 93.6172L182.611 94.0135C183.029 94.1286 183.446 94.2756 183.864 94.4545C184.281 94.6335 184.663 94.8594 185.008 95.1321C185.357 95.4006 185.637 95.7308 185.845 96.1229C186.058 96.5107 186.165 96.9773 186.165 97.5227C186.165 98.2216 185.984 98.8501 185.622 99.4084C185.259 99.9666 184.74 100.41 184.062 100.738C183.384 101.062 182.573 101.224 181.627 101.224C180.736 101.224 179.963 101.077 179.306 100.783C178.65 100.484 178.134 100.073 177.759 99.549C177.384 99.0249 177.173 98.4176 177.127 97.7273H178.354C178.396 98.2429 178.567 98.6797 178.865 99.0376C179.164 99.3956 179.551 99.6683 180.029 99.8558C180.506 100.039 181.039 100.131 181.627 100.131C182.279 100.131 182.858 100.022 183.365 99.8047C183.877 99.5831 184.277 99.2763 184.567 98.8842C184.861 98.4879 185.008 98.0277 185.008 97.5036C185.008 97.0604 184.893 96.6896 184.663 96.3913C184.433 96.0888 184.111 95.8352 183.698 95.6307C183.289 95.4261 182.813 95.245 182.272 95.0874L180.706 94.6271C179.679 94.3203 178.882 93.8963 178.316 93.3551C177.749 92.8139 177.465 92.1236 177.465 91.2841C177.465 90.581 177.653 89.9631 178.028 89.4304C178.407 88.8935 178.919 88.4759 179.562 88.1776C180.21 87.875 180.936 87.7237 181.742 87.7237C182.556 87.7237 183.276 87.8729 183.902 88.1712C184.529 88.4695 185.025 88.8807 185.392 89.4048C185.762 89.9247 185.96 90.517 185.986 91.1818H184.829ZM188.249 88.983V87.9091H197.741V88.983H193.593V101H192.397V88.983H188.249ZM198.922 101H197.669L202.431 87.9091H203.71L208.472 101H207.219L203.115 89.4624H203.026L198.922 101ZM199.823 95.9822H206.317V97.0561H199.823V95.9822ZM210.715 101V87.9091H214.94C215.869 87.9091 216.645 88.0774 217.267 88.4141C217.893 88.7464 218.364 89.2088 218.68 89.8011C218.999 90.3892 219.159 91.0646 219.159 91.8274C219.159 92.5902 218.999 93.2635 218.68 93.8473C218.364 94.4311 217.896 94.8871 217.273 95.2152C216.651 95.5433 215.88 95.7074 214.96 95.7074H211.361V94.6143H214.928C215.609 94.6143 216.176 94.5014 216.628 94.2756C217.084 94.0497 217.423 93.728 217.644 93.3104C217.87 92.8928 217.983 92.3984 217.983 91.8274C217.983 91.2564 217.87 90.7578 217.644 90.3317C217.418 89.9013 217.077 89.5689 216.621 89.3345C216.17 89.1001 215.599 88.983 214.908 88.983H211.911V101H210.715ZM216.487 95.0938L219.709 101H218.328L215.138 95.0938H216.487Z" fill="black"/>
<path d="M40.8906 119.062C40.8906 118.633 40.7487 118.307 40.4648 118.086C40.181 117.862 39.7969 117.75 39.3125 117.75C38.9583 117.75 38.6393 117.807 38.3555 117.922C38.0716 118.036 37.8398 118.194 37.6602 118.395C37.4805 118.595 37.3698 118.823 37.3281 119.078C37.2943 119.292 37.3164 119.475 37.3945 119.629C37.4727 119.78 37.5833 119.906 37.7266 120.008C37.8724 120.107 38.0286 120.189 38.1953 120.254C38.362 120.316 38.5156 120.367 38.6563 120.406L39.4375 120.625C39.6328 120.68 39.8503 120.755 40.0898 120.852C40.3294 120.948 40.5534 121.079 40.7617 121.246C40.9701 121.41 41.1289 121.621 41.2383 121.879C41.3503 122.137 41.375 122.453 41.3125 122.828C41.2396 123.26 41.0612 123.651 40.7773 124C40.4961 124.349 40.1237 124.626 39.6602 124.832C39.1992 125.038 38.6615 125.141 38.0469 125.141C37.474 125.141 36.9922 125.048 36.6016 124.863C36.2135 124.678 35.9271 124.421 35.7422 124.09C35.5599 123.759 35.4896 123.375 35.5313 122.938H36.5313C36.5052 123.24 36.5651 123.49 36.7109 123.687C36.8568 123.883 37.0599 124.029 37.3203 124.125C37.5807 124.219 37.8698 124.266 38.1875 124.266C38.5573 124.266 38.8984 124.206 39.2109 124.086C39.526 123.964 39.7865 123.794 39.9922 123.578C40.2005 123.359 40.3281 123.104 40.375 122.812C40.4219 122.547 40.3854 122.331 40.2656 122.164C40.1458 121.997 39.9727 121.862 39.7461 121.758C39.5195 121.654 39.2708 121.562 39 121.484L38.0625 121.203C37.4688 121.023 37.0169 120.767 36.707 120.434C36.3997 120.1 36.2891 119.664 36.375 119.125C36.4531 118.677 36.6419 118.286 36.9414 117.953C37.2409 117.617 37.612 117.357 38.0547 117.172C38.4974 116.984 38.974 116.891 39.4844 116.891C40 116.891 40.4414 116.984 40.8086 117.172C41.1758 117.357 41.4492 117.613 41.6289 117.941C41.8086 118.267 41.875 118.641 41.8281 119.062H40.8906ZM44.9209 125.125C44.3454 125.125 43.8701 124.997 43.4951 124.742C43.1201 124.484 42.8584 124.125 42.71 123.664C42.5615 123.201 42.5381 122.661 42.6396 122.047C42.7412 121.432 42.943 120.891 43.2451 120.422C43.5472 119.951 43.9235 119.583 44.374 119.32C44.8245 119.055 45.3193 118.922 45.8584 118.922C46.1709 118.922 46.4717 118.974 46.7607 119.078C47.0498 119.182 47.2998 119.352 47.5107 119.586C47.7217 119.818 47.8688 120.125 47.9521 120.508C48.0355 120.891 48.0303 121.362 47.9365 121.922L47.874 122.312H43.249L43.374 121.516H47.0615C47.1214 121.177 47.1058 120.875 47.0146 120.609C46.9261 120.344 46.7712 120.134 46.5498 119.98C46.3311 119.827 46.0537 119.75 45.7178 119.75C45.3714 119.75 45.0485 119.844 44.749 120.031C44.4495 120.216 44.1995 120.451 43.999 120.734C43.7985 121.016 43.6735 121.302 43.624 121.594L43.5146 122.281C43.4365 122.779 43.4482 123.174 43.5498 123.469C43.654 123.763 43.835 123.975 44.0928 124.105C44.3506 124.233 44.6735 124.297 45.0615 124.297C45.3089 124.297 45.5368 124.263 45.7451 124.195C45.9535 124.125 46.1396 124.021 46.3037 123.883C46.4678 123.742 46.6058 123.568 46.7178 123.359L47.5615 123.609C47.4183 123.911 47.2165 124.177 46.9561 124.406C46.6982 124.633 46.3962 124.81 46.0498 124.937C45.7061 125.063 45.3298 125.125 44.9209 125.125ZM53.0322 122.547L53.626 119H54.5479L53.5479 125H52.626L52.7979 123.984H52.7354C52.5479 124.289 52.2861 124.548 51.9502 124.762C51.6143 124.973 51.2197 125.078 50.7666 125.078C50.3916 125.078 50.0713 124.996 49.8057 124.832C49.5426 124.665 49.3551 124.415 49.2432 124.082C49.1338 123.746 49.1208 123.323 49.2041 122.812L49.8447 119H50.7666L50.1416 122.75C50.0713 123.187 50.1377 123.536 50.3408 123.797C50.5439 124.057 50.8369 124.187 51.2197 124.187C51.4489 124.187 51.6911 124.129 51.9463 124.012C52.2041 123.895 52.4333 123.715 52.6338 123.473C52.8369 123.23 52.9697 122.922 53.0322 122.547ZM58.4551 125L59.7832 117H60.7051L60.2207 119.953H60.2988C60.3822 119.849 60.498 119.716 60.6465 119.555C60.7949 119.391 60.9941 119.245 61.2441 119.117C61.4941 118.987 61.8145 118.922 62.2051 118.922C62.7103 118.922 63.1335 119.048 63.4746 119.301C63.8184 119.553 64.0592 119.911 64.1973 120.375C64.3379 120.839 64.3561 121.385 64.252 122.016C64.1478 122.651 63.9486 123.202 63.6543 123.668C63.3626 124.132 63.0033 124.491 62.5762 124.746C62.1517 124.999 61.6895 125.125 61.1895 125.125C60.804 125.125 60.5059 125.061 60.2949 124.934C60.0866 124.803 59.9329 124.656 59.834 124.492C59.7376 124.326 59.6634 124.187 59.6113 124.078H59.502L59.3457 125H58.4551ZM59.8613 122C59.7884 122.453 59.7897 122.853 59.8652 123.199C59.9408 123.543 60.0905 123.812 60.3145 124.008C60.5384 124.201 60.8353 124.297 61.2051 124.297C61.5905 124.297 61.929 124.195 62.2207 123.992C62.5124 123.786 62.752 123.51 62.9395 123.164C63.127 122.815 63.2572 122.427 63.3301 122C63.3978 121.578 63.3952 121.198 63.3223 120.859C63.252 120.518 63.1035 120.249 62.877 120.051C62.653 119.85 62.3457 119.75 61.9551 119.75C61.5801 119.75 61.248 119.845 60.959 120.035C60.6725 120.223 60.4355 120.486 60.248 120.824C60.0632 121.16 59.9342 121.552 59.8613 122ZM67.6621 125.125C67.0866 125.125 66.6113 124.997 66.2363 124.742C65.8613 124.484 65.5996 124.125 65.4512 123.664C65.3027 123.201 65.2793 122.661 65.3809 122.047C65.4824 121.432 65.6842 120.891 65.9863 120.422C66.2884 119.951 66.6647 119.583 67.1152 119.32C67.5658 119.055 68.0605 118.922 68.5996 118.922C68.9121 118.922 69.2129 118.974 69.502 119.078C69.791 119.182 70.041 119.352 70.252 119.586C70.4629 119.818 70.61 120.125 70.6934 120.508C70.7767 120.891 70.7715 121.362 70.6777 121.922L70.6152 122.312H65.9902L66.1152 121.516H69.8027C69.8626 121.177 69.847 120.875 69.7559 120.609C69.6673 120.344 69.5124 120.134 69.291 119.98C69.0723 119.827 68.7949 119.75 68.459 119.75C68.1126 119.75 67.7897 119.844 67.4902 120.031C67.1908 120.216 66.9408 120.451 66.7402 120.734C66.5397 121.016 66.4147 121.302 66.3652 121.594L66.2559 122.281C66.1777 122.779 66.1895 123.174 66.291 123.469C66.3952 123.763 66.5762 123.975 66.834 124.105C67.0918 124.233 67.4147 124.297 67.8027 124.297C68.0501 124.297 68.278 124.263 68.4863 124.195C68.6947 124.125 68.8809 124.021 69.0449 123.883C69.209 123.742 69.347 123.568 69.459 123.359L70.3027 123.609C70.1595 123.911 69.9577 124.177 69.6973 124.406C69.4395 124.633 69.1374 124.81 68.791 124.937C68.4473 125.063 68.071 125.125 67.6621 125.125ZM71.5859 125L72.5859 119H73.4766L73.3203 119.937H73.3984C73.5781 119.617 73.8216 119.368 74.1289 119.191C74.4388 119.012 74.7891 118.922 75.1797 118.922C75.5703 118.922 75.8841 119.012 76.1211 119.191C76.3581 119.368 76.5234 119.617 76.6172 119.937H76.6797C76.8828 119.625 77.1536 119.378 77.4922 119.195C77.8333 119.013 78.2188 118.922 78.6484 118.922C79.1797 118.922 79.5885 119.09 79.875 119.426C80.1641 119.762 80.25 120.281 80.1328 120.984L79.4609 125H78.5391L79.2109 120.984C79.2813 120.539 79.2109 120.223 79 120.035C78.7917 119.845 78.5234 119.75 78.1953 119.75C77.7734 119.75 77.4258 119.876 77.1523 120.129C76.8789 120.382 76.7109 120.703 76.6484 121.094L75.9922 125H75.0547L75.7422 120.891C75.7969 120.547 75.7318 120.271 75.5469 120.062C75.362 119.854 75.0937 119.75 74.7422 119.75C74.5026 119.75 74.2682 119.815 74.0391 119.945C73.8099 120.073 73.6133 120.25 73.4492 120.477C73.2852 120.701 73.1797 120.958 73.1328 121.25L72.5078 125H71.5859ZM88.3184 121.141L88.1777 122H84.6777L84.8184 121.141H88.3184ZM94.8936 125.125C94.318 125.125 93.8428 124.997 93.4678 124.742C93.0928 124.484 92.8311 124.125 92.6826 123.664C92.5342 123.201 92.5107 122.661 92.6123 122.047C92.7139 121.432 92.9157 120.891 93.2178 120.422C93.5199 119.951 93.8962 119.583 94.3467 119.32C94.7972 119.055 95.292 118.922 95.8311 118.922C96.1436 118.922 96.4443 118.974 96.7334 119.078C97.0225 119.182 97.2725 119.352 97.4834 119.586C97.6943 119.818 97.8415 120.125 97.9248 120.508C98.0081 120.891 98.0029 121.362 97.9092 121.922L97.8467 122.312H93.2217L93.3467 121.516H97.0342C97.0941 121.177 97.0785 120.875 96.9873 120.609C96.8988 120.344 96.7438 120.134 96.5225 119.98C96.3037 119.827 96.0264 119.75 95.6904 119.75C95.3441 119.75 95.0212 119.844 94.7217 120.031C94.4222 120.216 94.1722 120.451 93.9717 120.734C93.7712 121.016 93.6462 121.302 93.5967 121.594L93.4873 122.281C93.4092 122.779 93.4209 123.174 93.5225 123.469C93.6266 123.763 93.8076 123.975 94.0654 124.105C94.3232 124.233 94.6462 124.297 95.0342 124.297C95.2816 124.297 95.5094 124.263 95.7178 124.195C95.9261 124.125 96.1123 124.021 96.2764 123.883C96.4404 123.742 96.5785 123.568 96.6904 123.359L97.5342 123.609C97.391 123.911 97.1891 124.177 96.9287 124.406C96.6709 124.633 96.3688 124.81 96.0225 124.937C95.6787 125.063 95.3024 125.125 94.8936 125.125ZM103.849 120.344L102.974 120.578C102.942 120.437 102.888 120.302 102.81 120.172C102.734 120.039 102.617 119.931 102.458 119.848C102.302 119.762 102.088 119.719 101.817 119.719C101.45 119.719 101.131 119.803 100.86 119.973C100.59 120.139 100.435 120.352 100.396 120.609C100.356 120.836 100.409 121.017 100.552 121.152C100.695 121.288 100.935 121.398 101.271 121.484L102.13 121.703C102.646 121.836 103.013 122.035 103.231 122.301C103.453 122.564 103.528 122.906 103.458 123.328C103.401 123.672 103.251 123.979 103.009 124.25C102.767 124.521 102.457 124.734 102.079 124.891C101.701 125.047 101.281 125.125 100.817 125.125C100.2 125.125 99.7132 124.992 99.3564 124.727C98.9997 124.458 98.8096 124.07 98.7861 123.562L99.708 123.344C99.7314 123.664 99.846 123.906 100.052 124.07C100.26 124.232 100.552 124.312 100.927 124.312C101.356 124.312 101.715 124.221 102.001 124.039C102.287 123.854 102.45 123.633 102.489 123.375C102.528 123.164 102.487 122.988 102.364 122.848C102.244 122.707 102.036 122.602 101.739 122.531L100.786 122.297C100.255 122.164 99.8825 121.961 99.6689 121.687C99.458 121.414 99.3877 121.07 99.458 120.656C99.5153 120.318 99.6611 120.018 99.8955 119.758C100.132 119.497 100.429 119.293 100.786 119.145C101.146 118.996 101.536 118.922 101.958 118.922C102.552 118.922 102.996 119.052 103.29 119.312C103.584 119.57 103.771 119.914 103.849 120.344ZM108.174 119L108.049 119.781H104.939L105.064 119H108.174ZM106.205 117.562H107.127L106.174 123.281C106.132 123.542 106.139 123.737 106.193 123.867C106.251 123.995 106.337 124.081 106.451 124.125C106.568 124.167 106.695 124.187 106.83 124.187C106.932 124.187 107.015 124.182 107.08 124.172C107.145 124.159 107.197 124.148 107.236 124.141L107.299 124.969C107.229 124.992 107.133 125.016 107.014 125.039C106.896 125.065 106.752 125.078 106.58 125.078C106.32 125.078 106.075 125.022 105.846 124.91C105.617 124.798 105.441 124.628 105.318 124.398C105.196 124.169 105.163 123.88 105.221 123.531L106.205 117.562ZM110.311 125.141C109.93 125.141 109.597 125.069 109.311 124.926C109.024 124.78 108.812 124.57 108.674 124.297C108.536 124.021 108.498 123.687 108.561 123.297C108.62 122.953 108.736 122.674 108.908 122.461C109.08 122.245 109.288 122.076 109.533 121.953C109.781 121.828 110.046 121.736 110.33 121.676C110.617 121.613 110.902 121.565 111.186 121.531C111.555 121.484 111.856 121.448 112.088 121.422C112.32 121.396 112.494 121.353 112.611 121.293C112.729 121.233 112.8 121.13 112.826 120.984V120.953C112.889 120.57 112.838 120.272 112.674 120.059C112.51 119.842 112.217 119.734 111.795 119.734C111.357 119.734 110.992 119.831 110.697 120.023C110.403 120.216 110.186 120.422 110.045 120.641L109.232 120.328C109.446 119.964 109.701 119.68 109.998 119.477C110.295 119.271 110.606 119.128 110.932 119.047C111.257 118.964 111.571 118.922 111.873 118.922C112.066 118.922 112.283 118.945 112.525 118.992C112.768 119.036 112.994 119.129 113.205 119.27C113.419 119.41 113.579 119.622 113.686 119.906C113.795 120.19 113.811 120.57 113.732 121.047L113.076 125H112.154L112.295 124.187H112.248C112.165 124.318 112.037 124.457 111.865 124.605C111.696 124.754 111.481 124.88 111.221 124.984C110.963 125.089 110.66 125.141 110.311 125.141ZM110.576 124.312C110.941 124.312 111.26 124.241 111.533 124.098C111.809 123.954 112.031 123.77 112.197 123.543C112.367 123.316 112.472 123.078 112.514 122.828L112.654 121.984C112.607 122.031 112.515 122.074 112.377 122.113C112.239 122.15 112.083 122.182 111.908 122.211C111.736 122.237 111.568 122.26 111.404 122.281C111.243 122.299 111.113 122.315 111.014 122.328C110.769 122.359 110.536 122.41 110.314 122.48C110.096 122.548 109.911 122.651 109.76 122.789C109.611 122.924 109.519 123.109 109.482 123.344C109.428 123.664 109.505 123.906 109.713 124.07C109.921 124.232 110.209 124.312 110.576 124.312ZM114.759 125L115.759 119H116.649L116.493 119.906H116.556C116.712 119.609 116.95 119.368 117.271 119.184C117.591 118.999 117.931 118.906 118.29 118.906C118.36 118.906 118.445 118.908 118.544 118.91C118.643 118.91 118.72 118.914 118.774 118.922L118.618 119.859C118.587 119.852 118.517 119.84 118.407 119.824C118.298 119.806 118.181 119.797 118.056 119.797C117.764 119.797 117.494 119.858 117.247 119.98C117 120.1 116.793 120.267 116.626 120.48C116.459 120.691 116.353 120.932 116.306 121.203L115.681 125H114.759ZM124.467 125.125C123.891 125.125 123.416 124.997 123.041 124.742C122.666 124.484 122.404 124.125 122.256 123.664C122.107 123.201 122.084 122.661 122.186 122.047C122.287 121.432 122.489 120.891 122.791 120.422C123.093 119.951 123.469 119.583 123.92 119.32C124.37 119.055 124.865 118.922 125.404 118.922C125.717 118.922 126.018 118.974 126.307 119.078C126.596 119.182 126.846 119.352 127.057 119.586C127.268 119.818 127.415 120.125 127.498 120.508C127.581 120.891 127.576 121.362 127.482 121.922L127.42 122.312H122.795L122.92 121.516H126.607C126.667 121.177 126.652 120.875 126.561 120.609C126.472 120.344 126.317 120.134 126.096 119.98C125.877 119.827 125.6 119.75 125.264 119.75C124.917 119.75 124.594 119.844 124.295 120.031C123.995 120.216 123.745 120.451 123.545 120.734C123.344 121.016 123.219 121.302 123.17 121.594L123.061 122.281C122.982 122.779 122.994 123.174 123.096 123.469C123.2 123.763 123.381 123.975 123.639 124.105C123.896 124.233 124.219 124.297 124.607 124.297C124.855 124.297 125.083 124.263 125.291 124.195C125.499 124.125 125.686 124.021 125.85 123.883C126.014 123.742 126.152 123.568 126.264 123.359L127.107 123.609C126.964 123.911 126.762 124.177 126.502 124.406C126.244 124.633 125.942 124.81 125.596 124.937C125.252 125.063 124.876 125.125 124.467 125.125ZM125.045 118.187L126.295 116.375H127.373L125.857 118.187H125.045ZM133 121.391L132.406 125H131.484L132.484 119H133.375L133.219 119.937H133.297C133.484 119.633 133.738 119.388 134.059 119.203C134.379 119.016 134.766 118.922 135.219 118.922C135.62 118.922 135.958 119.005 136.234 119.172C136.513 119.336 136.71 119.586 136.824 119.922C136.941 120.255 136.958 120.677 136.875 121.188L136.234 125H135.313L135.938 121.25C136.016 120.781 135.954 120.414 135.754 120.148C135.556 119.883 135.242 119.75 134.813 119.75C134.516 119.75 134.241 119.814 133.988 119.941C133.738 120.069 133.526 120.255 133.352 120.5C133.18 120.745 133.063 121.042 133 121.391ZM140.396 125.125C139.843 125.125 139.381 124.993 139.009 124.73C138.636 124.467 138.373 124.099 138.22 123.625C138.069 123.151 138.044 122.599 138.146 121.969C138.244 121.354 138.441 120.819 138.735 120.363C139.032 119.905 139.401 119.551 139.841 119.301C140.284 119.048 140.771 118.922 141.302 118.922C141.854 118.922 142.315 119.055 142.685 119.32C143.057 119.583 143.32 119.953 143.474 120.43C143.627 120.904 143.653 121.458 143.552 122.094C143.453 122.703 143.254 123.236 142.954 123.691C142.657 124.145 142.289 124.497 141.849 124.75C141.411 125 140.927 125.125 140.396 125.125ZM140.411 124.297C140.833 124.297 141.199 124.189 141.509 123.973C141.821 123.757 142.074 123.471 142.267 123.117C142.462 122.763 142.593 122.38 142.661 121.969C142.724 121.578 142.721 121.215 142.653 120.879C142.586 120.54 142.441 120.268 142.22 120.062C141.998 119.854 141.687 119.75 141.286 119.75C140.864 119.75 140.496 119.859 140.181 120.078C139.868 120.297 139.616 120.585 139.423 120.941C139.23 121.298 139.101 121.682 139.036 122.094C138.974 122.484 138.975 122.848 139.04 123.184C139.108 123.517 139.252 123.786 139.474 123.992C139.698 124.195 140.01 124.297 140.411 124.297ZM149.514 120.344L148.639 120.578C148.607 120.437 148.553 120.302 148.475 120.172C148.399 120.039 148.282 119.931 148.123 119.848C147.967 119.762 147.753 119.719 147.482 119.719C147.115 119.719 146.796 119.803 146.525 119.973C146.255 120.139 146.1 120.352 146.061 120.609C146.021 120.836 146.074 121.017 146.217 121.152C146.36 121.288 146.6 121.398 146.936 121.484L147.795 121.703C148.311 121.836 148.678 122.035 148.896 122.301C149.118 122.564 149.193 122.906 149.123 123.328C149.066 123.672 148.916 123.979 148.674 124.25C148.432 124.521 148.122 124.734 147.744 124.891C147.367 125.047 146.946 125.125 146.482 125.125C145.865 125.125 145.378 124.992 145.021 124.727C144.665 124.458 144.475 124.07 144.451 123.562L145.373 123.344C145.396 123.664 145.511 123.906 145.717 124.07C145.925 124.232 146.217 124.312 146.592 124.312C147.021 124.312 147.38 124.221 147.666 124.039C147.952 123.854 148.115 123.633 148.154 123.375C148.193 123.164 148.152 122.988 148.029 122.848C147.91 122.707 147.701 122.602 147.404 122.531L146.451 122.297C145.92 122.164 145.548 121.961 145.334 121.687C145.123 121.414 145.053 121.07 145.123 120.656C145.18 120.318 145.326 120.018 145.561 119.758C145.798 119.497 146.094 119.293 146.451 119.145C146.811 118.996 147.201 118.922 147.623 118.922C148.217 118.922 148.661 119.052 148.955 119.312C149.249 119.57 149.436 119.914 149.514 120.344ZM155.261 120.344L154.386 120.578C154.354 120.437 154.3 120.302 154.222 120.172C154.146 120.039 154.029 119.931 153.87 119.848C153.714 119.762 153.5 119.719 153.229 119.719C152.862 119.719 152.543 119.803 152.272 119.973C152.002 120.139 151.847 120.352 151.808 120.609C151.769 120.836 151.821 121.017 151.964 121.152C152.107 121.288 152.347 121.398 152.683 121.484L153.542 121.703C154.058 121.836 154.425 122.035 154.644 122.301C154.865 122.564 154.94 122.906 154.87 123.328C154.813 123.672 154.663 123.979 154.421 124.25C154.179 124.521 153.869 124.734 153.491 124.891C153.114 125.047 152.693 125.125 152.229 125.125C151.612 125.125 151.125 124.992 150.769 124.727C150.412 124.458 150.222 124.07 150.198 123.562L151.12 123.344C151.144 123.664 151.258 123.906 151.464 124.07C151.672 124.232 151.964 124.312 152.339 124.312C152.769 124.312 153.127 124.221 153.413 124.039C153.7 123.854 153.862 123.633 153.901 123.375C153.94 123.164 153.899 122.988 153.776 122.848C153.657 122.707 153.448 122.602 153.151 122.531L152.198 122.297C151.667 122.164 151.295 121.961 151.081 121.687C150.87 121.414 150.8 121.07 150.87 120.656C150.927 120.318 151.073 120.018 151.308 119.758C151.545 119.497 151.841 119.293 152.198 119.145C152.558 118.996 152.948 118.922 153.37 118.922C153.964 118.922 154.408 119.052 154.702 119.312C154.996 119.57 155.183 119.914 155.261 120.344ZM157.727 125.141C157.346 125.141 157.013 125.069 156.727 124.926C156.44 124.78 156.228 124.57 156.09 124.297C155.952 124.021 155.914 123.687 155.977 123.297C156.036 122.953 156.152 122.674 156.324 122.461C156.496 122.245 156.704 122.076 156.949 121.953C157.197 121.828 157.462 121.736 157.746 121.676C158.033 121.613 158.318 121.565 158.602 121.531C158.971 121.484 159.272 121.448 159.504 121.422C159.736 121.396 159.91 121.353 160.027 121.293C160.145 121.233 160.216 121.13 160.242 120.984V120.953C160.305 120.57 160.254 120.272 160.09 120.059C159.926 119.842 159.633 119.734 159.211 119.734C158.773 119.734 158.408 119.831 158.113 120.023C157.819 120.216 157.602 120.422 157.461 120.641L156.648 120.328C156.862 119.964 157.117 119.68 157.414 119.477C157.711 119.271 158.022 119.128 158.348 119.047C158.673 118.964 158.987 118.922 159.289 118.922C159.482 118.922 159.699 118.945 159.941 118.992C160.184 119.036 160.41 119.129 160.621 119.27C160.835 119.41 160.995 119.622 161.102 119.906C161.211 120.19 161.227 120.57 161.148 121.047L160.492 125H159.57L159.711 124.187H159.664C159.581 124.318 159.453 124.457 159.281 124.605C159.112 124.754 158.897 124.88 158.637 124.984C158.379 125.089 158.076 125.141 157.727 125.141ZM157.992 124.312C158.357 124.312 158.676 124.241 158.949 124.098C159.225 123.954 159.447 123.77 159.613 123.543C159.783 123.316 159.888 123.078 159.93 122.828L160.07 121.984C160.023 122.031 159.931 122.074 159.793 122.113C159.655 122.15 159.499 122.182 159.324 122.211C159.152 122.237 158.984 122.26 158.82 122.281C158.659 122.299 158.529 122.315 158.43 122.328C158.185 122.359 157.952 122.41 157.73 122.48C157.512 122.548 157.327 122.651 157.176 122.789C157.027 122.924 156.935 123.109 156.898 123.344C156.844 123.664 156.921 123.906 157.129 124.07C157.337 124.232 157.625 124.312 157.992 124.312ZM164.894 127.25L166.276 119H167.167L167.011 119.953H167.12C167.203 119.849 167.318 119.716 167.464 119.555C167.612 119.391 167.812 119.245 168.062 119.117C168.314 118.987 168.636 118.922 169.026 118.922C169.532 118.922 169.955 119.048 170.296 119.301C170.637 119.553 170.878 119.911 171.019 120.375C171.159 120.839 171.177 121.385 171.073 122.016C170.969 122.651 170.77 123.202 170.476 123.668C170.181 124.132 169.822 124.491 169.397 124.746C168.973 124.999 168.511 125.125 168.011 125.125C167.625 125.125 167.327 125.061 167.116 124.934C166.905 124.803 166.752 124.656 166.655 124.492C166.559 124.326 166.485 124.187 166.433 124.078H166.354L165.823 127.25H164.894ZM166.683 122C166.61 122.453 166.61 122.853 166.683 123.199C166.758 123.543 166.908 123.812 167.132 124.008C167.358 124.201 167.657 124.297 168.026 124.297C168.412 124.297 168.749 124.195 169.038 123.992C169.33 123.786 169.569 123.51 169.757 123.164C169.947 122.815 170.078 122.427 170.151 122C170.219 121.578 170.216 121.198 170.144 120.859C170.071 120.518 169.922 120.249 169.698 120.051C169.474 119.85 169.167 119.75 168.776 119.75C168.401 119.75 168.069 119.845 167.78 120.035C167.494 120.223 167.257 120.486 167.069 120.824C166.884 121.16 166.756 121.552 166.683 122ZM171.982 125L172.982 119H173.873L173.717 119.906H173.779C173.936 119.609 174.174 119.368 174.494 119.184C174.814 118.999 175.154 118.906 175.514 118.906C175.584 118.906 175.669 118.908 175.768 118.91C175.867 118.91 175.943 118.914 175.998 118.922L175.842 119.859C175.811 119.852 175.74 119.84 175.631 119.824C175.521 119.806 175.404 119.797 175.279 119.797C174.988 119.797 174.718 119.858 174.471 119.98C174.223 120.1 174.016 120.267 173.85 120.48C173.683 120.691 173.576 120.932 173.529 121.203L172.904 125H171.982ZM176.097 125L177.097 119H178.019L177.019 125H176.097ZM177.839 117.984C177.659 117.984 177.504 117.923 177.374 117.801C177.246 117.678 177.183 117.531 177.183 117.359C177.183 117.187 177.246 117.04 177.374 116.918C177.504 116.796 177.659 116.734 177.839 116.734C178.019 116.734 178.172 116.796 178.3 116.918C178.43 117.04 178.495 117.187 178.495 117.359C178.495 117.531 178.43 117.678 178.3 117.801C178.172 117.923 178.019 117.984 177.839 117.984ZM181.184 125.125C180.632 125.125 180.169 124.993 179.797 124.73C179.424 124.467 179.161 124.099 179.008 123.625C178.857 123.151 178.832 122.599 178.934 121.969C179.033 121.354 179.229 120.819 179.523 120.363C179.82 119.905 180.189 119.551 180.629 119.301C181.072 119.048 181.559 118.922 182.09 118.922C182.642 118.922 183.103 119.055 183.473 119.32C183.845 119.583 184.108 119.953 184.262 120.43C184.415 120.904 184.441 121.458 184.34 122.094C184.241 122.703 184.042 123.236 183.742 123.691C183.445 124.145 183.077 124.497 182.637 124.75C182.199 125 181.715 125.125 181.184 125.125ZM181.199 124.297C181.621 124.297 181.987 124.189 182.297 123.973C182.609 123.757 182.862 123.471 183.055 123.117C183.25 122.763 183.382 122.38 183.449 121.969C183.512 121.578 183.509 121.215 183.441 120.879C183.374 120.54 183.229 120.268 183.008 120.062C182.786 119.854 182.475 119.75 182.074 119.75C181.652 119.75 181.284 119.859 180.969 120.078C180.656 120.297 180.404 120.585 180.211 120.941C180.018 121.298 179.889 121.682 179.824 122.094C179.762 122.484 179.763 122.848 179.828 123.184C179.896 123.517 180.04 123.786 180.262 123.992C180.486 124.195 180.798 124.297 181.199 124.297ZM185.271 125L186.271 119H187.161L187.005 119.906H187.067C187.224 119.609 187.462 119.368 187.782 119.184C188.103 118.999 188.442 118.906 188.802 118.906C188.872 118.906 188.957 118.908 189.056 118.91C189.155 118.91 189.231 118.914 189.286 118.922L189.13 119.859C189.099 119.852 189.028 119.84 188.919 119.824C188.81 119.806 188.692 119.797 188.567 119.797C188.276 119.797 188.006 119.858 187.759 119.98C187.511 120.1 187.304 120.267 187.138 120.48C186.971 120.691 186.864 120.932 186.817 121.203L186.192 125H185.271ZM189.385 125L190.385 119H191.307L190.307 125H189.385ZM191.127 117.984C190.947 117.984 190.792 117.923 190.662 117.801C190.535 117.678 190.471 117.531 190.471 117.359C190.471 117.187 190.535 117.04 190.662 116.918C190.792 116.796 190.947 116.734 191.127 116.734C191.307 116.734 191.46 116.796 191.588 116.918C191.718 117.04 191.783 117.187 191.783 117.359C191.783 117.531 191.718 117.678 191.588 117.801C191.46 117.923 191.307 117.984 191.127 117.984ZM194.253 125.125C193.75 125.125 193.328 124.999 192.987 124.746C192.646 124.491 192.405 124.132 192.265 123.668C192.127 123.202 192.11 122.651 192.214 122.016C192.321 121.385 192.52 120.839 192.812 120.375C193.106 119.911 193.466 119.553 193.894 119.301C194.321 119.048 194.787 118.922 195.292 118.922C195.683 118.922 195.981 118.987 196.187 119.117C196.395 119.245 196.546 119.391 196.64 119.555C196.733 119.716 196.805 119.849 196.854 119.953H196.933L197.425 117H198.347L197.019 125H196.128L196.284 124.078H196.175C196.089 124.187 195.969 124.326 195.815 124.492C195.662 124.656 195.459 124.803 195.206 124.934C194.956 125.061 194.638 125.125 194.253 125.125ZM194.479 124.297C194.849 124.297 195.18 124.201 195.472 124.008C195.766 123.812 196.011 123.543 196.206 123.199C196.401 122.853 196.537 122.453 196.612 122C196.688 121.552 196.685 121.16 196.604 120.824C196.524 120.486 196.369 120.223 196.14 120.035C195.91 119.845 195.607 119.75 195.229 119.75C194.841 119.75 194.504 119.85 194.218 120.051C193.931 120.249 193.698 120.518 193.519 120.859C193.339 121.198 193.214 121.578 193.144 122C193.073 122.427 193.072 122.815 193.14 123.164C193.207 123.51 193.351 123.786 193.569 123.992C193.791 124.195 194.094 124.297 194.479 124.297ZM200.577 125.141C200.197 125.141 199.864 125.069 199.577 124.926C199.291 124.78 199.078 124.57 198.94 124.297C198.802 124.021 198.765 123.687 198.827 123.297C198.887 122.953 199.003 122.674 199.175 122.461C199.347 122.245 199.555 122.076 199.8 121.953C200.047 121.828 200.313 121.736 200.597 121.676C200.883 121.613 201.168 121.565 201.452 121.531C201.822 121.484 202.123 121.448 202.354 121.422C202.586 121.396 202.761 121.353 202.878 121.293C202.995 121.233 203.067 121.13 203.093 120.984V120.953C203.155 120.57 203.104 120.272 202.94 120.059C202.776 119.842 202.483 119.734 202.062 119.734C201.624 119.734 201.258 119.831 200.964 120.023C200.67 120.216 200.452 120.422 200.312 120.641L199.499 120.328C199.713 119.964 199.968 119.68 200.265 119.477C200.562 119.271 200.873 119.128 201.198 119.047C201.524 118.964 201.838 118.922 202.14 118.922C202.332 118.922 202.55 118.945 202.792 118.992C203.034 119.036 203.261 119.129 203.472 119.27C203.685 119.41 203.845 119.622 203.952 119.906C204.062 120.19 204.077 120.57 203.999 121.047L203.343 125H202.421L202.562 124.187H202.515C202.431 124.318 202.304 124.457 202.132 124.605C201.963 124.754 201.748 124.88 201.487 124.984C201.229 125.089 200.926 125.141 200.577 125.141ZM200.843 124.312C201.207 124.312 201.526 124.241 201.8 124.098C202.076 123.954 202.297 123.77 202.464 123.543C202.633 123.316 202.739 123.078 202.78 122.828L202.921 121.984C202.874 122.031 202.782 122.074 202.644 122.113C202.506 122.15 202.349 122.182 202.175 122.211C202.003 122.237 201.835 122.26 201.671 122.281C201.509 122.299 201.379 122.315 201.28 122.328C201.035 122.359 200.802 122.41 200.581 122.48C200.362 122.548 200.177 122.651 200.026 122.789C199.878 122.924 199.785 123.109 199.749 123.344C199.694 123.664 199.771 123.906 199.979 124.07C200.188 124.232 200.476 124.312 200.843 124.312ZM207.283 125.125C206.781 125.125 206.359 124.999 206.018 124.746C205.676 124.491 205.436 124.132 205.295 123.668C205.157 123.202 205.14 122.651 205.244 122.016C205.351 121.385 205.55 120.839 205.842 120.375C206.136 119.911 206.497 119.553 206.924 119.301C207.351 119.048 207.817 118.922 208.322 118.922C208.713 118.922 209.011 118.987 209.217 119.117C209.425 119.245 209.576 119.391 209.67 119.555C209.764 119.716 209.835 119.849 209.885 119.953H209.963L210.455 117H211.377L210.049 125H209.158L209.314 124.078H209.205C209.119 124.187 208.999 124.326 208.846 124.492C208.692 124.656 208.489 124.803 208.236 124.934C207.986 125.061 207.669 125.125 207.283 125.125ZM207.51 124.297C207.88 124.297 208.21 124.201 208.502 124.008C208.796 123.812 209.041 123.543 209.236 123.199C209.432 122.853 209.567 122.453 209.643 122C209.718 121.552 209.715 121.16 209.635 120.824C209.554 120.486 209.399 120.223 209.17 120.035C208.941 119.845 208.637 119.75 208.26 119.75C207.872 119.75 207.535 119.85 207.248 120.051C206.962 120.249 206.729 120.518 206.549 120.859C206.369 121.198 206.244 121.578 206.174 122C206.104 122.427 206.102 122.815 206.17 123.164C206.238 123.51 206.381 123.786 206.6 123.992C206.821 124.195 207.124 124.297 207.51 124.297ZM214.357 125.125C213.782 125.125 213.307 124.997 212.932 124.742C212.557 124.484 212.295 124.125 212.146 123.664C211.998 123.201 211.975 122.661 212.076 122.047C212.178 121.432 212.38 120.891 212.682 120.422C212.984 119.951 213.36 119.583 213.811 119.32C214.261 119.055 214.756 118.922 215.295 118.922C215.607 118.922 215.908 118.974 216.197 119.078C216.486 119.182 216.736 119.352 216.947 119.586C217.158 119.818 217.305 120.125 217.389 120.508C217.472 120.891 217.467 121.362 217.373 121.922L217.311 122.312H212.686L212.811 121.516H216.498C216.558 121.177 216.542 120.875 216.451 120.609C216.363 120.344 216.208 120.134 215.986 119.98C215.768 119.827 215.49 119.75 215.154 119.75C214.808 119.75 214.485 119.844 214.186 120.031C213.886 120.216 213.636 120.451 213.436 120.734C213.235 121.016 213.11 121.302 213.061 121.594L212.951 122.281C212.873 122.779 212.885 123.174 212.986 123.469C213.09 123.763 213.271 123.975 213.529 124.105C213.787 124.233 214.11 124.297 214.498 124.297C214.745 124.297 214.973 124.263 215.182 124.195C215.39 124.125 215.576 124.021 215.74 123.883C215.904 123.742 216.042 123.568 216.154 123.359L216.998 123.609C216.855 123.911 216.653 124.177 216.393 124.406C216.135 124.633 215.833 124.81 215.486 124.937C215.143 125.063 214.766 125.125 214.357 125.125Z" fill="#625F5F" fill-opacity="0.92"/>
<defs>
<linearGradient id="paint0_linear_288_533" x1="122.5" y1="1.50502e-06" x2="171" y2="50.5" gradientUnits="userSpaceOnUse">
<stop stop-color="#6CE2C6"/>
<stop offset="0.352835" stop-color="#72C684"/>
</linearGradient>
</defs>
</svg>
